  0
SECTION
  2
HEADER
  9
$ACADVER
  1
AC1018
  9
$ACADMAINTVER
 70
     0
  9
$DWGCODEPAGE
  3
ANSI_1252
  9
$EXTMIN
 10
-180
 20
35
 30
0.0
  9
$EXTMAX
 10
-127.3777777778
 20
90.0000000000005
 30
0.0
  9
$LIMMIN
 10
0.0
 20
0.0
  9
$LIMMAX
 10
12.0
 20
9.0
  9
$ORTHOMODE
 70
     0
  9
$REGENMODE
 70
     1
  9
$FILLMODE
 70
     1
  9
$QTEXTMODE
 70
     0
  9
$MIRRTEXT
 70
     1
  9
$LTSCALE
 40
1.0
  9
$ATTMODE
 70
     1
  9
$TEXTSIZE
 40
0.2
  9
$TRACEWID
 40
0.05
  9
$TEXTSTYLE
  7
Standard
  9
$CLAYER
  8
0
  9
$CELTYPE
  6
ByLayer
  9
$CECOLOR
 62
   256
  9
$CELTSCALE
 40
1.0
  9
$DISPSILH
 70
     0
  9
$LUNITS
 70
     2
  9
$LUPREC
 70
     4
  9
$SKETCHINC
 40
0.1
  9
$FILLETRAD
 40
0.5
  9
$AUNITS
 70
     0
  9
$AUPREC
 70
     0
  9
$MENU
  1
.
  9
$ELEVATION
 40
0.0
  9
$PELEVATION
 40
0.0
  9
$THICKNESS
 40
0.0
  9
$LIMCHECK
 70
     0
  9
$CHAMFERA
 40
0.5
  9
$CHAMFERB
 40
0.5
  9
$CHAMFERC
 40
1.0
  9
$CHAMFERD
 40
0.0
  9
$SKPOLY
 70
     0
  9
$ANGBASE
 50
0.0
  9
$ANGDIR
 70
     0
  9
$PDMODE
 70
     0
  9
$PDSIZE
 40
0.0
  9
$PLINEWID
 40
0.0
  9
$SPLFRAME
 70
     0
  9
$SPLINETYPE
 70
     6
  9
$SPLINESEGS
 70
     8
  9
$HANDSEED
  5
00020024
  9
$SURFTAB1
 70
     6
  9
$SURFTAB2
 70
     6
  9
$SURFTYPE
 70
     6
  9
$SURFU
 70
     6
  9
$SURFV
 70
     6
  9
$UCSBASE
  2

  9
$UCSNAME
  2

  9
$UCSORG
 10
0.0
 20
0.0
 30
0.0
  9
$UCSXDIR
 10
1.0
 20
0.0
 30
0.0
  9
$UCSYDIR
 10
0.0
 20
1.0
 30
0.0
  9
$UCSORTHOREF
  2

  9
$UCSORTHOVIEW
 70
     0
  9
$UCSORGTOP
 10
0.0
 20
0.0
 30
0.0
  9
$UCSORGBOTTOM
 10
0.0
 20
0.0
 30
0.0
  9
$UCSORGLEFT
 10
0.0
 20
0.0
 30
0.0
  9
$UCSORGRIGHT
 10
0.0
 20
0.0
 30
0.0
  9
$UCSORGFRONT
 10
0.0
 20
0.0
 30
0.0
  9
$UCSORGBACK
 10
0.0
 20
0.0
 30
0.0
  9
$PUCSBASE
  2

  9
$PUCSNAME
  2

  9
$PUCSORG
 10
0.0
 20
0.0
 30
0.0
  9
$PUCSXDIR
 10
1.0
 20
0.0
 30
0.0
  9
$PUCSYDIR
 10
0.0
 20
1.0
 30
0.0
  9
$PUCSORTHOREF
  2

  9
$PUCSORTHOVIEW
 70
     0
  9
$PUCSORGTOP
 10
0.0
 20
0.0
 30
0.0
  9
$PUCSORGBOTTOM
 10
0.0
 20
0.0
 30
0.0
  9
$PUCSORGLEFT
 10
0.0
 20
0.0
 30
0.0
  9
$PUCSORGRIGHT
 10
0.0
 20
0.0
 30
0.0
  9
$PUCSORGFRONT
 10
0.0
 20
0.0
 30
0.0
  9
$PUCSORGBACK
 10
0.0
 20
0.0
 30
0.0
  9
$WORLDVIEW
 70
     1
  9
$SHADEDGE
 70
     3
  9
$SHADEDIF
 70
    70
  9
$TILEMODE
 70
     1
  9
$MAXACTVP
 70
    64
  9
$PINSBASE
 10
0.0
 20
0.0
 30
0.0
  9
$PLIMCHECK
 70
     0
  9
$PEXTMIN
 10
1.000000000000000E+20
 20
1.000000000000000E+20
 30
1.000000000000000E+20
  9
$PEXTMAX
 10
-1.000000000000000E+20
 20
-1.000000000000000E+20
 30
-1.000000000000000E+20
  9
$PLIMMIN
 10
0.0
 20
0.0
  9
$PLIMMAX
 10
12.0
 20
9.0
  9
$UNITMODE
 70
     0
  9
$VISRETAIN
 70
     1
  9
$PLINEGEN
 70
     0
  9
$PSLTSCALE
 70
     1
  9
$TREEDEPTH
 70
  3020
  9
$CMLSTYLE
  2
Standard
  9
$CMLJUST
 70
     0
  9
$CMLSCALE
 40
1.0
  9
$PROXYGRAPHICS
 70
     1
  9
$MEASUREMENT
 70
     0
  9
$CELWEIGHT
370
    -1
  9
$ENDCAPS
280
     0
  9
$JOINSTYLE
280
     0
  9
$LWDISPLAY
290
     0
  9
$INSUNITS
 70
     1
  9
$HYPERLINKBASE
  1

  9
$STYLESHEET
  1

  9
$XEDIT
290
     1
  9
$CEPSNTYPE
380
     0
  9
$PSTYLEMODE
290
     1
  9
$EXTNAMES
290
     1
  9
$PSVPSCALE
 40
0.0
  9
$OLESTARTUP
290
     0
  9
$SORTENTS
280
   127
  9
$INDEXCTL
280
     0
  9
$HIDETEXT
280
     1
  9
$XCLIPFRAME
290
     0
  9
$HALOGAP
280
     0
  9
$OBSCOLOR
 70
   257
  9
$OBSLTYPE
280
     0
  9
$INTERSECTIONDISPLAY
280
     0
  9
$INTERSECTIONCOLOR
 70
   257
  9
$DIMASSOC
280
     2
  9
$PROJECTNAME
  1

  0
ENDSEC
  0
SECTION
  2
CLASSES
  0
CLASS
  1
ACDBDICTIONARYWDFLT
  2
AcDbDictionaryWithDefault
  3
ObjectDBX Classes
 90
        0
 91
        4
280
     0
281
     0
  0
ENDSEC
  0
SECTION
  2
TABLES
  0
TABLE
  2
VPORT
  5
8
330
0
100
AcDbSymbolTable
 70
     1
  0
VPORT
  5
29
330
8
100
AcDbSymbolTableRecord
100
AcDbViewportTableRecord
  2
*Active
 70
     0
 10
0.0
 20
0.0
 11
1.0
 21
1.0
 12
80.25
 22
106.4409457059851
 13
0.0
 23
0.0
 14
0.5
 24
0.5
 15
0.5
 25
0.5
 16
0.0
 26
0.0
 36
1.0
 17
0.0
 27
0.0
 37
0.0
 40
113.3818914119703
 41
0.8863849310366128
 42
50.0
 43
0.0
 44
0.0
 50
0.0
 51
0.0
 71
     0
 72
  1000
 73
     1
 74
     3
 75
     0
 76
     0
 77
     0
 78
     0
281
     0
 65
     1
110
0.0
120
0.0
130
0.0
111
1.0
121
0.0
131
0.0
112
0.0
122
1.0
132
0.0
 79
     0
146
0.0
  0
ENDTAB
  0
TABLE
  2
LTYPE
  5
5
330
0
100
AcDbSymbolTable
 70
     1
  0
LTYPE
  5
14
330
5
100
AcDbSymbolTableRecord
100
AcDbLinetypeTableRecord
  2
ByBlock
 70
     0
  3

 72
    65
 73
     0
 40
0.0
  0
LTYPE
  5
15
330
5
100
AcDbSymbolTableRecord
100
AcDbLinetypeTableRecord
  2
ByLayer
 70
     0
  3

 72
    65
 73
     0
 40
0.0
  0
LTYPE
  5
16
330
5
100
AcDbSymbolTableRecord
100
AcDbLinetypeTableRecord
  2
Continuous
 70
     0
  3
Solid line
 72
    65
 73
     0
 40
0.0
  0
ENDTAB
  0
TABLE
  2
LAYER
  5
2
330
0
100
AcDbSymbolTable
 70
     1
  0
LAYER
  5
10
330
2
100
AcDbSymbolTableRecord
100
AcDbLayerTableRecord
  2
0
 70
     0
 62
     7
  6
Continuous
370
    -3
390
F
  0
ENDTAB
  0
TABLE
  2
STYLE
  5
3
330
0
100
AcDbSymbolTable
 70
     1
  0
STYLE
  5
11
330
3
100
AcDbSymbolTableRecord
100
AcDbTextStyleTableRecord
  2
Standard
 70
     0
 40
0.0
 41
1.0
 50
0.0
 71
     0
 42
0.2
  3
txt
  4

  0
ENDTAB
  0
TABLE
  2
VIEW
  5
6
330
0
100
AcDbSymbolTable
 70
     0
  0
ENDTAB
  0
TABLE
  2
UCS
  5
7
330
0
100
AcDbSymbolTable
 70
     0
  0
ENDTAB
  0
TABLE
  2
APPID
  5
9
330
0
100
AcDbSymbolTable
 70
     1
  0
APPID
  5
12
330
9
100
AcDbSymbolTableRecord
100
AcDbRegAppTableRecord
  2
ACAD
 70
     0
  0
ENDTAB
  0
TABLE
  2
DIMSTYLE
  5
A
330
0
100
AcDbSymbolTable
 70
     1
100
AcDbDimStyleTable
  0
DIMSTYLE
105
27
330
A
100
AcDbSymbolTableRecord
100
AcDbDimStyleTableRecord
  2
Standard
 70
     0
340
11
  0
ENDTAB
  0
TABLE
  2
BLOCK_RECORD
  5
1
330
0
100
AcDbSymbolTable
 70
     1
  0
BLOCK_RECORD
  5
1F
330
1
100
AcDbSymbolTableRecord
100
AcDbBlockTableRecord
  2
*Model_Space
340
22
  0
BLOCK_RECORD
  5
1B
330
1
100
AcDbSymbolTableRecord
100
AcDbBlockTableRecord
  2
*Paper_Space
340
1E
  0
ENDTAB
  0
ENDSEC
  0
SECTION
  2
BLOCKS
  0
BLOCK
  5
20
330
1F
100
AcDbEntity
  8
0
100
AcDbBlockBegin
  2
*Model_Space
 70
     0
 10
0.0
 20
0.0
 30
0.0
  3
*Model_Space
  1

  0
ENDBLK
  5
21
330
1F
100
AcDbEntity
  8
0
100
AcDbBlockEnd
  0
BLOCK
  5
1C
330
1B
100
AcDbEntity
 67
     1
  8
0
100
AcDbBlockBegin
  2
*Paper_Space
 70
     0
 10
0.0
 20
0.0
 30
0.0
  3
*Paper_Space
  1

  0
ENDBLK
  5
1D
330
1B
100
AcDbEntity
 67
     1
  8
0
100
AcDbBlockEnd
  0
ENDSEC
  0
SECTION
  2
ENTITIES
  0
LWPOLYLINE
  5
20000
100
AcDbEntity
  8
0
100
AcDbPolyline
 70
0
 90
28
 10
-151.75
 20
56.76167
 10
-153
 20
56
 10
-160
 20
53.5
 10
-163.504237
 20
52.558563
 10
-167.816667
 20
51.4
 10
-170
 20
51.083936
 10
-176.566667
 20
50.133333
 10
-180
 20
49.391443
 10
-180
 20
37
 10
-170
 20
36
 10
-160
 20
35
 10
-150
 20
35
 10
-150
 20
40
 10
-150
 20
47
 10
-145
 20
47
 10
-140
 20
47
 10
-135
 20
47
 10
-130
 20
47
 10
-127.377778
 20
47
 10
-127.804712
 20
47.908897
 10
-127.845278
 20
48
 10
-127.925
 20
48.166667
 10
-128
 20
48.333333
 10
-133.45
 20
51
 10
-135
 20
52.716667
 10
-137
 20
53.367443
 10
-137
 20
53.36744
 10
-151.75
 20
56.76167
  0
LWPOLYLINE
  5
20001
100
AcDbEntity
  8
0
100
AcDbPolyline
 70
0
 90
22
 10
-164.833333
 20
66.633333
 10
-168.973056
 20
66.45
 10
-168.973056
 20
65
 10
-172.2
 20
64.05
 10
-174.582193
 20
62.95855
 10
-170.7525
 20
62.67
 10
-168.363861
 20
60.5875
 10
-167.914111
 20
59.404167
 10
-167.892979
 20
59.334232
 10
-164.683333
 20
59.787222
 10
-164.388889
 20
62.252778
 10
-163.25
 20
62.45
 10
-156.477222
 20
61.868889
 10
-155.215833
 20
61.725
 10
-153.5
 20
62.416667
 10
-153.083333
 20
63
 10
-152.716667
 20
63.166667
 10
-154.333333
 20
64.733333
 10
-154.108333
 20
65.682
 10
-157
 20
66.116667
 10
-163
 20
66
 10
-164.833333
 20
66.633333
  0
LWPOLYLINE
  5
20002
100
AcDbEntity
  8
0
100
AcDbPolyline
 70
0
 90
28
 10
-141
 20
67.333333
 10
-141
 20
73
 10
-141
 20
74
 10
-141
 20
75
 10
-141
 20
76
 10
-141
 20
77
 10
-141
 20
78
 10
-141
 20
79
 10
-141
 20
80
 10
-141
 20
81
 10
-141
 20
82
 10
-141
 20
83
 10
-141
 20
84
 10
-141
 20
85
 10
-141
 20
86
 10
-141
 20
87
 10
-141
 20
88
 10
-141
 20
89
 10
-141
 20
90
 10
-168.973053
 20
90
 10
-168.973056
 20
73
 10
-168.973056
 20
66.45
 10
-164.833333
 20
66.633333
 10
-163
 20
66
 10
-157
 20
66.116667
 10
-154.108333
 20
65.681944
 10
-154
 20
66.116667
 10
-141
 20
67.333333
  0
LWPOLYLINE
  5
20003
100
AcDbEntity
  8
0
100
AcDbPolyline
 70
0
 90
17
 10
-152.8
 20
61.416667
 10
-155.215833
 20
61.725
 10
-156.477222
 20
61.868889
 10
-156.436994
 20
60.588186
 10
-156.416667
 20
59.9
 10
-155.333333
 20
59.5
 10
-152.291389
 20
59.161944
 10
-150
 20
59.183333
 10
-150
 20
60.5
 10
-150.122967
 20
60.789133
 10
-150.159722
 20
60.875556
 10
-151.073889
 20
61.083333
 10
-151.252222
 20
61.083333
 10
-151.75
 20
61.083333
 10
-152.116667
 20
61.233333
 10
-152.783333
 20
61.233333
 10
-152.8
 20
61.416667
  0
LWPOLYLINE
  5
20004
100
AcDbEntity
  8
0
100
AcDbPolyline
 70
0
 90
17
 10
-149.066715
 20
61.471641
 10
-149.066667
 20
61.471667
 10
-147.416667
 20
61.75
 10
-146.583333
 20
62.833333
 10
-148.571806
 20
62.967944
 10
-152.716667
 20
63.166667
 10
-153.083333
 20
63
 10
-153.5
 20
62.416667
 10
-155.215833
 20
61.725
 10
-152.8
 20
61.416667
 10
-152.783333
 20
61.233333
 10
-152.116667
 20
61.233333
 10
-151.75
 20
61.083333
 10
-151.252222
 20
61.083333
 10
-151.073889
 20
61.083333
 10
-150.159722
 20
60.875556
 10
-149.066715
 20
61.471641
  0
LWPOLYLINE
  5
20005
100
AcDbEntity
  8
0
100
AcDbPolyline
 70
0
 90
13
 10
-141
 20
62
 10
-141
 20
63.33333
 10
-146.58333
 20
62.83333
 10
-147.41667
 20
61.75
 10
-149.06667
 20
61.47167
 10
-150.15972
 20
60.87556
 10
-150
 20
60.5
 10
-150
 20
59.18333
 10
-146
 20
59
 10
-142.1235
 20
59.48394
 10
-141.33333
 20
60.53333
 10
-139.18333
 20
60.35
 10
-141
 20
62
  0
LWPOLYLINE
  5
20006
100
AcDbEntity
  8
0
100
AcDbPolyline
 70
0
 90
13
 10
-132.064292
 20
56.999819
 10
-134.987925
 20
59.387456
 10
-136.236686
 20
59.524642
 10
-138.624353
 20
59.768911
 10
-139.183333
 20
60.35
 10
-141.333333
 20
60.533333
 10
-142.123506
 20
59.483947
 10
-140.291306
 20
59.002111
 10
-138.61341
 20
58.318036
 10
-137.83333
 20
58
 10
-134.99853
 20
56.95139
 10
-133.06753
 20
56.63903
 10
-132.064292
 20
56.999819
  0
LWPOLYLINE
  5
20007
100
AcDbEntity
  8
0
100
AcDbPolyline
 70
0
 90
21
 10
-155.333333
 20
59.5
 10
-156.416667
 20
59.9
 10
-156.436944
 20
60.588333
 10
-164.683333
 20
59.7872
 10
-167.892979
 20
59.334232
 10
-167.713306
 20
58.739611
 10
-165
 20
56.966667
 10
-167
 20
55
 10
-167.744167
 20
54.217222
 10
-167.337222
 20
53.465278
 10
-163.504237
 20
52.558563
 10
-160
 20
53.5
 10
-153
 20
56
 10
-151.75
 20
56.761667
 10
-151.749996
 20
56.761669
 10
-151.75
 20
56.76167
 10
-150.900475
 20
57.251199
 10
-150.530944
 20
57.464139
 10
-150
 20
59.183333
 10
-152.291389
 20
59.161944
 10
-155.333333
 20
59.5
  0
LWPOLYLINE
  5
20008
100
AcDbEntity
  8
0
100
AcDbPolyline
 70
0
 90
6
 10
-164.683333
 20
59.787222
 10
-156.436944
 20
60.58833
 10
-156.477222
 20
61.868889
 10
-163.25
 20
62.45
 10
-164.388889
 20
62.252778
 10
-164.683333
 20
59.787222
  0
LWPOLYLINE
  5
20009
100
AcDbEntity
  8
0
100
AcDbPolyline
 70
0
 90
12
 10
-144
 20
60.16667
 10
-145
 20
61.83333
 10
-147.41667
 20
61.75
 10
-149.06667
 20
61.47167
 10
-149.066708
 20
61.471649
 10
-150.15972
 20
60.87556
 10
-150.119578
 20
60.78956
 10
-150.11667
 20
60.78333
 10
-150
 20
60.5
 10
-150
 20
59.18333
 10
-146
 20
59
 10
-144
 20
60.16667
  0
LWPOLYLINE
  5
2000A
100
AcDbEntity
  8
0
100
AcDbPolyline
 70
0
 90
21
 10
-148
 20
63.966667
 10
-147.975224
 20
64.270174
 10
-147.966667
 20
64.375
 10
-147.854306
 20
64.435361
 10
-147.630556
 20
64.753333
 10
-147.4875
 20
64.838611
 10
-147.285139
 20
65.004556
 10
-147.195392
 20
65.246165
 10
-147.192306
 20
65.254472
 10
-146.283333
 20
65.666667
 10
-145.842278
 20
65.999917
 10
-145.256944
 20
66
 10
-144.5
 20
66.666667
 10
-141
 20
66.666667
 10
-141
 20
67.333333
 10
-154
 20
66.116667
 10
-154.108333
 20
65.682
 10
-154.333333
 20
64.733333
 10
-152.716667
 20
63.166667
 10
-148.571806
 20
62.967944
 10
-148
 20
63.966667
  0
LWPOLYLINE
  5
2000B
100
AcDbEntity
  8
0
100
AcDbPolyline
 70
0
 90
18
 10
-141
 20
63.333333
 10
-141
 20
66.666667
 10
-144.5
 20
66.666667
 10
-145.256944
 20
66
 10
-145.842278
 20
65.999917
 10
-146.283333
 20
65.666667
 10
-147.192306
 20
65.254472
 10
-147.195392
 20
65.246165
 10
-147.285139
 20
65.004556
 10
-147.4875
 20
64.838611
 10
-147.630556
 20
64.753333
 10
-147.854306
 20
64.435361
 10
-147.966667
 20
64.375
 10
-147.975224
 20
64.270174
 10
-148
 20
63.966667
 10
-148.571806
 20
62.967944
 10
-146.566667
 20
62.833333
 10
-141
 20
63.333333
  0
LWPOLYLINE
  5
2000C
100
AcDbEntity
  8
0
100
AcDbPolyline
 70
0
 90
16
 10
-176.566667
 20
50.133333
 10
-167.816667
 20
51.4
 10
-163.504237
 20
52.558563
 10
-163.679167
 20
52.599944
 10
-167.337222
 20
53.465278
 10
-167.744167
 20
54.217222
 10
-167
 20
55
 10
-165
 20
56.966667
 10
-167.713306
 20
58.739611
 10
-167.914111
 20
59.404167
 10
-168.363861
 20
60.5875
 10
-170.7525
 20
62.67
 10
-174.582667
 20
62.958586
 10
-180
 20
60
 10
-180
 20
49.391443
 10
-176.566667
 20
50.133333
  0
LWPOLYLINE
  5
2000D
100
AcDbEntity
  8
0
100
AcDbPolyline
 70
0
 90
21
 10
-164.833333
 20
66.633333
 10
-168.973056
 20
66.45
 10
-168.973056
 20
65
 10
-172.2
 20
64.05
 10
-174.582193
 20
62.95855
 10
-170.7525
 20
62.67
 10
-168.363861
 20
60.5875
 10
-167.914111
 20
59.404167
 10
-167.892979
 20
59.334232
 10
-164.683333
 20
59.787222
 10
-156.436944
 20
60.588333
 10
-156.477222
 20
61.868889
 10
-155.215833
 20
61.725
 10
-153.5
 20
62.416667
 10
-153.083333
 20
63
 10
-152.716667
 20
63.166667
 10
-154.333333
 20
64.733333
 10
-154.108333
 20
65.682
 10
-157
 20
66.116667
 10
-163
 20
66
 10
-164.833333
 20
66.633333
  0
LWPOLYLINE
  5
2000E
100
AcDbEntity
  8
0
100
AcDbPolyline
 70
0
 90
10
 10
-160
 20
53.5
 10
-153
 20
56
 10
-151.75
 20
56.761667
 10
-166.924722
 20
58.246944
 10
-165
 20
56.966667
 10
-167
 20
55
 10
-167.744167
 20
54.217222
 10
-167.337222
 20
53.465278
 10
-163.504237
 20
52.558563
 10
-160
 20
53.5
  0
LWPOLYLINE
  5
2000F
100
AcDbEntity
  8
0
100
AcDbPolyline
 70
0
 90
28
 10
-151.75
 20
56.76167
 10
-153
 20
56
 10
-160
 20
53.5
 10
-163.504237
 20
52.558563
 10
-167.816667
 20
51.4
 10
-170
 20
51.083936
 10
-176.566667
 20
50.133333
 10
-180
 20
49.391443
 10
-180
 20
37
 10
-170
 20
36
 10
-160
 20
35
 10
-150
 20
35
 10
-150
 20
40
 10
-150
 20
47
 10
-145
 20
47
 10
-140
 20
47
 10
-135
 20
47
 10
-130
 20
47
 10
-127.377778
 20
47
 10
-127.804712
 20
47.908897
 10
-127.845278
 20
48
 10
-127.925
 20
48.166667
 10
-128
 20
48.333333
 10
-133.45
 20
51
 10
-135
 20
52.716667
 10
-137
 20
53.367443
 10
-137
 20
53.36744
 10
-151.75
 20
56.76167
  0
LWPOLYLINE
  5
20010
100
AcDbEntity
  8
0
100
AcDbPolyline
 70
0
 90
15
 10
-155.333333
 20
59.5
 10
-156.416667
 20
59.9
 10
-156.436944
 20
60.588333
 10
-164.683333
 20
59.7872
 10
-167.892979
 20
59.334232
 10
-167.713306
 20
58.739611
 10
-166.924722
 20
58.246944
 10
-151.75
 20
56.761667
 10
-151.749996
 20
56.761669
 10
-151.75
 20
56.76167
 10
-150.900475
 20
57.251199
 10
-150.530944
 20
57.464139
 10
-150
 20
59.183333
 10
-152.291389
 20
59.161944
 10
-155.333333
 20
59.5
  0
LWPOLYLINE
  5
20011
100
AcDbEntity
  8
0
100
AcDbPolyline
 70
0
 90
57
 10
-150
 20
59.18333
 10
-150.53094
 20
57.46414
 10
-151.75
 20
56.76167
 10
-137
 20
53.36744
 10
-136
 20
54
 10
-135.45
 20
54.10833
 10
-134
 20
54.11344
 10
-133.27389
 20
54.40842
 10
-132.83333
 20
54.58333
 10
-131.8
 20
54.49167
 10
-130.61667
 20
54.71667
 10
-130.61667
 20
54.725
 10
-130.625
 20
54.74167
 10
-130.64999
 20
54.7625
 10
-130.62917
 20
54.77917
 10
-130.55
 20
54.79583
 10
-130.45
 20
54.85
 10
-130.26666
 20
54.975
 10
-130.1875
 20
55.06667
 10
-130.10001
 20
55.19167
 10
-129.97084
 20
55.28333
 10
-130.02499
 20
55.34167
 10
-130.03334
 20
55.44583
 10
-130.09584
 20
55.50417
 10
-130.125
 20
55.58333
 10
-130.10834
 20
55.68333
 10
-130.14583
 20
55.71667
 10
-130.14999
 20
55.76667
 10
-130.125
 20
55.80833
 10
-130.08333
 20
55.825
 10
-130
 20
55.90833
 10
-130.01666
 20
55.91667
 10
-130
 20
56.00833
 10
-130.10001
 20
56.125
 10
-130.25
 20
56.09583
 10
-130.34166
 20
56.12917
 10
-130.43333
 20
56.14167
 10
-130.46666
 20
56.24167
 10
-130.55
 20
56.24583
 10
-130.625
 20
56.26667
 10
-130.78334
 20
56.3625
 10
-131.08333
 20
56.40833
 10
-131.18333
 20
56.45
 10
-131.46666
 20
56.55
 10
-131.58333
 20
56.6125
 10
-131.84166
 20
56.6
 10
-131.86667
 20
56.70417
 10
-131.89999
 20
56.75
 10
-131.875
 20
56.80833
 10
-132.06429
 20
56.99982
 10
-133.06753
 20
56.63903
 10
-134.99853
 20
56.95139
 10
-137.83333
 20
58
 10
-140.29131
 20
59.00211
 10
-142.1235
 20
59.48394
 10
-146
 20
59
 10
-150
 20
59.18333
  0
LWPOLYLINE
  5
20012
100
AcDbEntity
  8
0
100
AcDbPolyline
 70
0
 90
28
 10
-151.749999999999
 20
56.7616700000012
 10
-152.999999999999
 20
56.0000000000014
 10
-159.999999999999
 20
53.5000000000013
 10
-163.504236798236
 20
52.5585632522504
 10
-167.816666999999
 20
51.400000000002
 10
-169.999999999999
 20
51.0839364730174
 10
-176.566667
 20
50.1333330000007
 10
-180
 20
49.3914430522714
 10
-180
 20
37.0000000000011
 10
-169.999999999999
 20
36.0000000000016
 10
-159.999999999999
 20
35.0000000000022
 10
-149.999999999999
 20
35.0000000000022
 10
-149.999999999999
 20
40.0000000000022
 10
-149.999999999999
 20
47.0000000000023
 10
-144.999999999999
 20
47.0000000000023
 10
-140
 20
47.0000000000023
 10
-135
 20
47.0000000000023
 10
-130
 20
47.0000000000023
 10
-127.3777777778
 20
47.0000000000026
 10
-127.804711527543
 20
47.9088967555132
 10
-127.8452777778
 20
48.0000000000026
 10
-127.925
 20
48.1666670000021
 10
-127.999999999999
 20
48.3333330000019
 10
-133.45
 20
51.000000000002
 10
-135
 20
52.716667000002
 10
-136.999995824409
 20
53.3674426413131
 10
-137
 20
53.3674400000014
 10
-151.749999999999
 20
56.7616700000012
  0
LWPOLYLINE
  5
20013
100
AcDbEntity
  8
0
100
AcDbPolyline
 70
0
 90
22
 10
-164.833333
 20
66.6333330000003
 10
-168.973056
 20
66.4500000000003
 10
-168.973056
 20
65.0000000000003
 10
-172.2
 20
64.0500000000002
 10
-174.58219278718
 20
62.9585502701794
 10
-170.7525
 20
62.6700000000004
 10
-168.363861
 20
60.5875000000004
 10
-167.914111
 20
59.4041670000004
 10
-167.892979271317
 20
59.3342324013263
 10
-164.683333
 20
59.7872220000002
 10
-164.388889
 20
62.252778
 10
-163.25
 20
62.4500000000002
 10
-156.477222
 20
61.8688890000002
 10
-155.215833
 20
61.7250000000003
 10
-153.5
 20
62.4166670000002
 10
-153.083333
 20
63.0000000000002
 10
-152.716667
 20
63.1666670000002
 10
-154.333333
 20
64.7333330000003
 10
-154.108333
 20
65.6820000000002
 10
-157
 20
66.1166670000002
 10
-163
 20
66.0000000000003
 10
-164.833333
 20
66.6333330000003
  0
LWPOLYLINE
  5
20014
100
AcDbEntity
  8
0
100
AcDbPolyline
 70
0
 90
28
 10
-141
 20
67.3333330000003
 10
-141
 20
73.0000000000005
 10
-141
 20
74.0000000000005
 10
-141
 20
75.0000000000005
 10
-141
 20
76.0000000000004
 10
-141
 20
77.0000000000004
 10
-141
 20
78.0000000000003
 10
-141
 20
79.0000000000003
 10
-141
 20
80.0000000000003
 10
-141
 20
81.0000000000005
 10
-141
 20
82.0000000000005
 10
-141
 20
83.0000000000005
 10
-141
 20
84.0000000000004
 10
-141
 20
85.0000000000004
 10
-141
 20
86.0000000000004
 10
-141
 20
87.0000000000003
 10
-141
 20
88.0000000000003
 10
-141
 20
89.0000000000005
 10
-141
 20
90.0000000000005
 10
-168.973053
 20
90.0000000000005
 10
-168.973056
 20
73.0000000000005
 10
-168.973056
 20
66.4500000000003
 10
-164.833333
 20
66.6333330000003
 10
-163
 20
66.0000000000003
 10
-157
 20
66.1166670000002
 10
-154.108333
 20
65.6819440000002
 10
-154
 20
66.1166670000002
 10
-141
 20
67.3333330000003
  0
LWPOLYLINE
  5
20015
100
AcDbEntity
  8
0
100
AcDbPolyline
 70
0
 90
17
 10
-152.8
 20
61.4166670000002
 10
-155.215833
 20
61.7250000000003
 10
-156.477222
 20
61.8688890000002
 10
-156.436994
 20
60.5881860000003
 10
-156.416667
 20
59.9000000000003
 10
-155.333333
 20
59.5000000000001
 10
-152.291389
 20
59.1619440000003
 10
-150
 20
59.1833330000002
 10
-150
 20
60.5000000000003
 10
-150.122966854309
 20
60.7891332436158
 10
-150.159722
 20
60.8755560000001
 10
-151.073889
 20
61.083333
 10
-151.252222199999
 20
61.0833330000003
 10
-151.75
 20
61.0833330000003
 10
-152.116667
 20
61.2333330000002
 10
-152.783333
 20
61.2333330000002
 10
-152.8
 20
61.4166670000002
  0
LWPOLYLINE
  5
20016
100
AcDbEntity
  8
0
100
AcDbPolyline
 70
0
 90
17
 10
-149.066715336907
 20
61.4716406388729
 10
-149.066667
 20
61.4716670000003
 10
-147.416667
 20
61.7500000000002
 10
-146.583333
 20
62.8333330000003
 10
-148.571806
 20
62.9679440000003
 10
-152.716667
 20
63.1666670000002
 10
-153.083333
 20
63.0000000000002
 10
-153.5
 20
62.4166670000002
 10
-155.215833
 20
61.7250000000003
 10
-152.8
 20
61.4166670000002
 10
-152.783333
 20
61.2333330000002
 10
-152.116667
 20
61.2333330000002
 10
-151.75
 20
61.0833330000003
 10
-151.252222199999
 20
61.0833330000003
 10
-151.073889
 20
61.083333
 10
-150.159722
 20
60.8755560000001
 10
-149.066715336907
 20
61.4716406388729
  0
LWPOLYLINE
  5
20017
100
AcDbEntity
  8
0
100
AcDbPolyline
 70
0
 90
13
 10
-141
 20
62.0000000000003
 10
-141
 20
63.3333300000004
 10
-146.58333
 20
62.8333300000004
 10
-147.41667
 20
61.7500000000004
 10
-149.06667
 20
61.4716700000003
 10
-150.15972
 20
60.8755600000003
 10
-150
 20
60.5000000000003
 10
-150
 20
59.1833300000002
 10
-146
 20
59.0000000000004
 10
-142.1235
 20
59.4839400000004
 10
-141.33333
 20
60.5333300000004
 10
-139.18333
 20
60.3500000000005
 10
-141
 20
62.0000000000003
  0
LWPOLYLINE
  5
20018
100
AcDbEntity
  8
0
100
AcDbPolyline
 70
0
 90
13
 10
-132.064292167825
 20
56.9998192203967
 10
-134.987925
 20
59.3874560000002
 10
-136.236686
 20
59.5246420000001
 10
-138.624353
 20
59.7689110000002
 10
-139.183333
 20
60.3500000000003
 10
-141.333333
 20
60.5333330000001
 10
-142.123506
 20
59.4839470000003
 10
-140.291306
 20
59.0021110000003
 10
-138.613410351288
 20
58.3180360787433
 10
-137.83333
 20
58.0000000000002
 10
-134.99853
 20
56.9513900000003
 10
-133.06753
 20
56.6390300000003
 10
-132.064292167825
 20
56.9998192203967
  0
LWPOLYLINE
  5
20019
100
AcDbEntity
  8
0
100
AcDbPolyline
 70
0
 90
21
 10
-155.333333
 20
59.5000000000005
 10
-156.416667
 20
59.9000000000006
 10
-156.436944
 20
60.5883330000005
 10
-164.683333
 20
59.7872000000005
 10
-167.892979229614
 20
59.3342322633152
 10
-167.713306
 20
58.7396110000007
 10
-165
 20
56.9666670000006
 10
-167
 20
55.0000000000007
 10
-167.744167
 20
54.2172220000007
 10
-167.337222
 20
53.4652780000006
 10
-163.504236798236
 20
52.5585632522501
 10
-160
 20
53.5000000000006
 10
-153
 20
56.0000000000006
 10
-151.75
 20
56.7616670000006
 10
-151.749996279577
 20
56.7616691438668
 10
-151.75
 20
56.7616700000004
 10
-150.900475053225
 20
57.251199464802
 10
-150.530944
 20
57.4641390000006
 10
-150
 20
59.1833330000006
 10
-152.291389
 20
59.1619440000006
 10
-155.333333
 20
59.5000000000005
  0
LWPOLYLINE
  5
2001A
100
AcDbEntity
  8
0
100
AcDbPolyline
 70
0
 90
6
 10
-164.683333
 20
59.787222
 10
-156.436944
 20
60.58833
 10
-156.477222
 20
61.868889
 10
-163.25
 20
62.45
 10
-164.388889
 20
62.252778
 10
-164.683333
 20
59.787222
  0
LWPOLYLINE
  5
2001B
100
AcDbEntity
  8
0
100
AcDbPolyline
 70
0
 90
12
 10
-144
 20
60.1666700000004
 10
-145
 20
61.8333300000004
 10
-147.41667
 20
61.7500000000004
 10
-149.06667
 20
61.4716700000005
 10
-149.066708376532
 20
61.4716490708255
 10
-150.15972
 20
60.8755600000003
 10
-150.119577926548
 20
60.7895599202211
 10
-150.11667
 20
60.7833300000004
 10
-150
 20
60.5000000000005
 10
-150
 20
59.1833300000004
 10
-146
 20
59.0000000000004
 10
-144
 20
60.1666700000004
  0
LWPOLYLINE
  5
2001C
100
AcDbEntity
  8
0
100
AcDbPolyline
 70
0
 90
21
 10
-148
 20
63.9666670000003
 10
-147.975224142532
 20
64.2701740412891
 10
-147.966667
 20
64.375
 10
-147.854306
 20
64.435361
 10
-147.630556
 20
64.7533330000002
 10
-147.4875
 20
64.8386110000001
 10
-147.285139
 20
65.004556
 10
-147.195391705503
 20
65.2461649628846
 10
-147.192306
 20
65.2544720000002
 10
-146.283333
 20
65.6666670000002
 10
-145.842278
 20
65.9999170000002
 10
-145.256944
 20
66.0000000000003
 10
-144.5
 20
66.6666670000002
 10
-141
 20
66.6666670000002
 10
-141
 20
67.3333330000003
 10
-154
 20
66.1166670000002
 10
-154.108333
 20
65.6820000000002
 10
-154.333333
 20
64.7333330000003
 10
-152.716667
 20
63.1666670000002
 10
-148.571806
 20
62.9679440000003
 10
-148
 20
63.9666670000003
  0
LWPOLYLINE
  5
2001D
100
AcDbEntity
  8
0
100
AcDbPolyline
 70
0
 90
18
 10
-141
 20
63.3333330000002
 10
-141
 20
66.6666670000002
 10
-144.5
 20
66.6666670000002
 10
-145.256944
 20
66.0000000000003
 10
-145.842278
 20
65.9999170000002
 10
-146.283333
 20
65.6666670000002
 10
-147.192306
 20
65.2544720000002
 10
-147.195391705503
 20
65.2461649628844
 10
-147.285139
 20
65.004556
 10
-147.4875
 20
64.8386110000001
 10
-147.630556
 20
64.7533330000002
 10
-147.854306
 20
64.435361
 10
-147.966667
 20
64.375
 10
-147.975224142532
 20
64.270174041289
 10
-148
 20
63.9666670000003
 10
-148.571806
 20
62.9679440000003
 10
-146.566667
 20
62.8333330000003
 10
-141
 20
63.3333330000002
  0
LWPOLYLINE
  5
2001E
100
AcDbEntity
  8
0
100
AcDbPolyline
 70
0
 90
16
 10
-176.566667
 20
50.1333330000009
 10
-167.816667
 20
51.4000000000009
 10
-163.504236798236
 20
52.5585632522501
 10
-163.679167
 20
52.5999440000007
 10
-167.337222
 20
53.4652780000008
 10
-167.744167
 20
54.2172220000009
 10
-167
 20
55.0000000000009
 10
-165
 20
56.9666670000008
 10
-167.713306
 20
58.7396110000008
 10
-167.914111
 20
59.4041670000009
 10
-168.363861
 20
60.5875000000009
 10
-170.7525
 20
62.6700000000009
 10
-174.582667
 20
62.9585860000008
 10
-180
 20
60.0000000000009
 10
-180
 20
49.3914430541673
 10
-176.566667
 20
50.1333330000009
  0
LWPOLYLINE
  5
2001F
100
AcDbEntity
  8
0
100
AcDbPolyline
 70
0
 90
21
 10
-164.833333
 20
66.6333330000003
 10
-168.973056
 20
66.4500000000003
 10
-168.973056
 20
65.0000000000003
 10
-172.2
 20
64.0500000000002
 10
-174.58219278718
 20
62.9585502701794
 10
-170.7525
 20
62.6700000000004
 10
-168.363861
 20
60.5875000000004
 10
-167.914111
 20
59.4041670000004
 10
-167.892979271317
 20
59.3342324013263
 10
-164.683333
 20
59.7872220000002
 10
-156.436944
 20
60.5883330000001
 10
-156.477222
 20
61.8688890000002
 10
-155.215833
 20
61.7250000000003
 10
-153.5
 20
62.4166670000002
 10
-153.083333
 20
63.0000000000002
 10
-152.716667
 20
63.1666670000002
 10
-154.333333
 20
64.7333330000003
 10
-154.108333
 20
65.6820000000002
 10
-157
 20
66.1166670000002
 10
-163
 20
66.0000000000003
 10
-164.833333
 20
66.6333330000003
  0
LWPOLYLINE
  5
20020
100
AcDbEntity
  8
0
100
AcDbPolyline
 70
0
 90
10
 10
-160
 20
53.5000000000006
 10
-153
 20
56.0000000000006
 10
-151.75
 20
56.7616670000006
 10
-166.924722
 20
58.2469440000005
 10
-165
 20
56.9666670000006
 10
-167
 20
55.0000000000007
 10
-167.744167
 20
54.2172220000007
 10
-167.337222
 20
53.4652780000006
 10
-163.504236798236
 20
52.5585632522504
 10
-160
 20
53.5000000000006
  0
LWPOLYLINE
  5
20021
100
AcDbEntity
  8
0
100
AcDbPolyline
 70
0
 90
28
 10
-151.749999999999
 20
56.7616700000012
 10
-152.999999999999
 20
56.0000000000014
 10
-159.999999999999
 20
53.5000000000013
 10
-163.504236798236
 20
52.5585632522504
 10
-167.816666999999
 20
51.400000000002
 10
-169.999999999999
 20
51.0839364730174
 10
-176.566667
 20
50.1333330000007
 10
-180
 20
49.3914430522714
 10
-180
 20
37.0000000000011
 10
-169.999999999999
 20
36.0000000000016
 10
-159.999999999999
 20
35.0000000000022
 10
-149.999999999999
 20
35.0000000000022
 10
-149.999999999999
 20
40.0000000000022
 10
-149.999999999999
 20
47.0000000000023
 10
-144.999999999999
 20
47.0000000000023
 10
-140
 20
47.0000000000023
 10
-135
 20
47.0000000000023
 10
-130
 20
47.0000000000023
 10
-127.3777777778
 20
47.0000000000026
 10
-127.804711527543
 20
47.9088967555132
 10
-127.8452777778
 20
48.0000000000026
 10
-127.925
 20
48.1666670000021
 10
-127.999999999999
 20
48.3333330000019
 10
-133.45
 20
51.000000000002
 10
-135
 20
52.716667000002
 10
-136.999995824409
 20
53.3674426413131
 10
-137
 20
53.3674400000014
 10
-151.749999999999
 20
56.7616700000012
  0
LWPOLYLINE
  5
20022
100
AcDbEntity
  8
0
100
AcDbPolyline
 70
0
 90
15
 10
-155.333333
 20
59.5000000000003
 10
-156.416667
 20
59.9000000000004
 10
-156.436944
 20
60.5883330000004
 10
-164.683333
 20
59.7872000000003
 10
-167.892979229614
 20
59.3342322633151
 10
-167.713306
 20
58.7396110000004
 10
-166.924722
 20
58.2469440000003
 10
-151.75
 20
56.7616670000004
 10
-151.749996279577
 20
56.7616691438666
 10
-151.75
 20
56.7616700000003
 10
-150.900475053225
 20
57.2511994648019
 10
-150.530944
 20
57.4641390000004
 10
-150
 20
59.1833330000004
 10
-152.291389
 20
59.1619440000005
 10
-155.333333
 20
59.5000000000003
  0
LWPOLYLINE
  5
20023
100
AcDbEntity
  8
0
100
AcDbPolyline
 70
0
 90
57
 10
-150
 20
59.18333
 10
-150.53094
 20
57.46414
 10
-151.75
 20
56.76167
 10
-137
 20
53.36744
 10
-136
 20
54
 10
-135.45
 20
54.10833
 10
-134
 20
54.11344
 10
-133.27389
 20
54.40842
 10
-132.83333
 20
54.58333
 10
-131.8
 20
54.49167
 10
-130.61667
 20
54.71667
 10
-130.61667
 20
54.725
 10
-130.625
 20
54.74167
 10
-130.64999
 20
54.7625
 10
-130.62917
 20
54.77917
 10
-130.55
 20
54.79583
 10
-130.45
 20
54.8500000000001
 10
-130.26666
 20
54.975
 10
-130.1875
 20
55.06667
 10
-130.10001
 20
55.19167
 10
-129.97084
 20
55.28333
 10
-130.02499
 20
55.34167
 10
-130.03334
 20
55.4458300000001
 10
-130.09584
 20
55.5041700000001
 10
-130.125
 20
55.58333
 10
-130.10834
 20
55.68333
 10
-130.14583
 20
55.71667
 10
-130.14999
 20
55.76667
 10
-130.125
 20
55.80833
 10
-130.08333
 20
55.825
 10
-130
 20
55.90833
 10
-130.01666
 20
55.9166700000001
 10
-130
 20
56.0083300000001
 10
-130.10001
 20
56.125
 10
-130.25
 20
56.09583
 10
-130.34166
 20
56.12917
 10
-130.43333
 20
56.14167
 10
-130.46666
 20
56.24167
 10
-130.55
 20
56.24583
 10
-130.625
 20
56.26667
 10
-130.78334
 20
56.3625
 10
-131.08333
 20
56.40833
 10
-131.18333
 20
56.45
 10
-131.46666
 20
56.55
 10
-131.58333
 20
56.6125
 10
-131.84166
 20
56.6000000000001
 10
-131.86667
 20
56.70417
 10
-131.89999
 20
56.75
 10
-131.875
 20
56.80833
 10
-132.06429
 20
56.9998200000001
 10
-133.06753
 20
56.6390300000001
 10
-134.99853
 20
56.9513900000001
 10
-137.83333
 20
58
 10
-140.29131
 20
59.00211
 10
-142.1235
 20
59.48394
 10
-146
 20
59
 10
-150
 20
59.18333
  0
ENDSEC
  0
SECTION
  2
OBJECTS
  0
DICTIONARY
  5
C
330
0
100
AcDbDictionary
281
     1
  3
ACAD_GROUP
350
D
  3
ACAD_LAYOUT
350
1A
  3
ACAD_MLEADERSTYLE
350
43
  3
ACAD_PLOTSETTINGS
350
19
  3
ACAD_PLOTSTYLENAME
350
E
  3
ACAD_TABLESTYLE
350
42
  0
DICTIONARY
  5
D
102
{ACAD_REACTORS
330
C
102
}
330
C
100
AcDbDictionary
281
     1
  0
DICTIONARY
  5
1A
102
{ACAD_REACTORS
330
C
102
}
330
C
100
AcDbDictionary
281
     1
  3
Layout1
350
1E
  3
Model
350
22
  0
DICTIONARY
  5
43
102
{ACAD_REACTORS
330
C
102
}
330
C
100
AcDbDictionary
281
     1
  0
DICTIONARY
  5
19
102
{ACAD_REACTORS
330
C
102
}
330
C
100
AcDbDictionary
281
     1
  0
ACDBDICTIONARYWDFLT
  5
E
102
{ACAD_REACTORS
330
C
102
}
330
C
100
AcDbDictionary
281
     1
  3
Normal
350
F
100
AcDbDictionaryWithDefault
340
F
  0
DICTIONARY
  5
42
102
{ACAD_REACTORS
330
C
102
}
330
C
100
AcDbDictionary
281
     1
  0
LAYOUT
  5
1E
102
{ACAD_REACTORS
330
1A
102
}
330
1A
100
AcDbPlotSettings
  1

  2
none_device
  4

  6

 40
0.0
 41
0.0
 42
0.0
 43
0.0
 44
0.0
 45
0.0
 46
0.0
 47
0.0
 48
0.0
 49
0.0
140
0.0
141
0.0
142
1.0
143
1.0
 70
   688
 72
     0
 73
     0
 74
     5
  7

 75
    16
 76
     0
 77
     2
 78
   300
147
1.0
148
0.0
149
0.0
100
AcDbLayout
  1
Layout1
 70
     1
 71
     1
 10
0.0
 20
0.0
 11
12.0
 21
9.0
 12
0.0
 22
0.0
 32
0.0
 14
1.000000000000000E+20
 24
1.000000000000000E+20
 34
1.000000000000000E+20
 15
-1.000000000000000E+20
 25
-1.000000000000000E+20
 35
-1.000000000000000E+20
146
0.0
 13
0.0
 23
0.0
 33
0.0
 16
1.0
 26
0.0
 36
0.0
 17
0.0
 27
1.0
 37
0.0
 76
     0
330
1B
  0
LAYOUT
  5
22
102
{ACAD_REACTORS
330
1A
102
}
330
1A
100
AcDbPlotSettings
  1

  2
none_device
  4

  6

 40
0.0
 41
0.0
 42
0.0
 43
0.0
 44
0.0
 45
0.0
 46
0.0
 47
0.0
 48
0.0
 49
0.0
140
0.0
141
0.0
142
1.0
143
1.0
 70
  1712
 72
     0
 73
     0
 74
     0
  7

 75
     0
 76
     0
 77
     2
 78
   300
147
1.0
148
0.0
149
0.0
100
AcDbLayout
  1
Model
 70
     1
 71
     0
 10
0.0
 20
0.0
 11
12.0
 21
9.0
 12
0.0
 22
0.0
 32
0.0
 14
30.0
 24
49.75
 34
0.0
 15
130.5
 25
163.1318914119703
 35
0.0
146
0.0
 13
0.0
 23
0.0
 33
0.0
 16
1.0
 26
0.0
 36
0.0
 17
0.0
 27
1.0
 37
0.0
 76
     0
330
1F
331
29
  0
ENDSEC
  0
EOF
